Coordinates
version=1
nRows=14
nColumns=36
inDegrees=yes

Units are S.I. units (second, meters, Newtons, ...)
If the header above contains a line with 'inDegrees', this indicates whether rotational values are in degrees (yes) or radians (no).

endheader
time	pelvis_tilt	pelvis_list	pelvis_rotation	pelvis_tx	pelvis_ty	pelvis_tz	hip_flexion_r	hip_adduction_r	hip_rotation_r	knee_angle_r	knee_angle_r_beta	ankle_angle_r	subtalar_angle_r	mtp_angle_r	hip_flexion_l	hip_adduction_l	hip_rotation_l	knee_angle_l	knee_angle_l_beta	ankle_angle_l	subtalar_angle_l	mtp_angle_l	lumbar_extension	lumbar_bending	lumbar_rotation	arm_flex_r	arm_add_r	arm_rot_r	elbow_flex_r	pro_sup_r	arm_flex_l	arm_add_l	arm_rot_l	elbow_flex_l	pro_sup_l
      2.75833330	    -10.45607905	     -0.10206377	      2.38424542	      0.22036034	      0.77399676	     -0.05840911	     48.53421805	    -11.81627919	     -5.25714592	     73.47384936	      1.28236059	     26.08378386	     -4.74313430	     -7.49999987	     49.06277072	     -5.41147437	     -3.49840770	     73.16346717	      1.27694339	     25.36493771	     -8.78885762	     -7.49999987	    -31.37669807	      4.04000223	      0.10581491	     10.92501141	    -28.90964136	     -2.74005712	     77.94065973	     86.55881727	     11.31781616	    -15.76868612	      4.05519960	     70.20825023	     70.56734945
      2.76250000	    -10.58207420	     -0.15462944	      2.32042017	      0.22719291	      0.77640012	     -0.06128087	     48.05762107	    -11.55738100	     -5.57495089	     72.70394153	      1.26892316	     25.91969244	     -4.50887451	     -7.49999987	     48.56581210	     -5.67773578	     -3.54638360	     72.45179157	      1.26452231	     25.04869366	     -8.62347463	     -7.49999987	    -30.22038488	      3.81563120	      0.16921785	     10.49401307	    -28.70408015	     -2.60433197	     78.15477104	     86.57067741	     11.07241485	    -15.93687020	      4.00028844	     70.52519485	     70.58856818
      2.76666670	    -10.84962257	     -0.28994244	      2.21772383	      0.23009549	      0.78046499	     -0.05878734	     47.53737992	    -11.01654005	     -5.74389135	     71.68159333	      1.25107982	     25.60869885	     -4.44093314	     -7.49999987	     48.15508107	     -6.12117846	     -3.65461842	     71.62565806	      1.25010356	     24.45987444	     -8.64048239	     -7.49999987	    -28.96380653	      3.57835448	      0.30582212	      9.96387329	    -28.34220246	     -2.41989868	     78.13543950	     84.96615932	     10.61231139	    -16.12786710	      3.97283574	     71.20416329	     69.80666445
      2.77083330	    -10.42238696	     -0.49544026	      2.15333875	      0.23407722	      0.78656747	     -0.05633913	     46.00001987	    -10.49910648	     -6.14318470	     70.39442003	      1.22861440	     25.49587327	     -4.58897128	     -7.49999987	     46.76264571	     -6.61298335	     -3.70619835	     70.55424603	      1.23140389	     24.02033129	     -8.32601221	     -7.49999987	    -28.70488218	      3.51908240	      0.45363077	      9.51613558	    -28.13000244	     -2.33122707	     78.98095306	     84.44604480	     10.06721896	    -16.61752616	      4.04398615	     72.91912180	     69.69684042
      2.77500000	    -10.30097900	     -0.55300948	      2.02336285	      0.23512630	      0.79063762	     -0.05443297	     45.09065792	    -10.07728035	     -6.19950009	     69.42335523	      1.21166613	     24.89542431	     -5.25566949	     -7.49999987	     45.79900120	     -6.98719180	     -3.93593942	     69.60145018	      1.21477447	     23.65345218	     -8.02002716	     -7.49999987	    -28.05393689	      3.28213554	      0.49968497	      9.01990929	    -27.81904984	     -2.28440324	     79.68349903	     84.13892729	      9.48792543	    -17.02471014	      3.84460967	     74.24758751	     69.66820401
      2.77916670	    -10.30519035	     -0.69221790	      1.94465642	      0.23820283	      0.79301907	     -0.04929055	     44.38387313	     -9.55743910	     -6.44260532	     68.46847960	      1.19500040	     24.41757579	     -5.67317328	     -7.49999987	     45.11825435	     -7.62539114	     -4.21203836	     68.71429673	      1.19929072	     23.21913464	     -7.50426772	     -7.49999987	    -27.03400345	      3.08276696	      0.60104269	      8.57615171	    -27.48274938	     -2.08855825	     80.17869561	     83.75462132	      8.95569815	    -17.58211753	      3.87207367	     75.19756953	     69.57879191
      2.78333330	    -10.35202417	     -0.68986837	      1.99032832	      0.24657165	      0.79798784	     -0.05362543	     43.55646467	     -9.68100536	     -6.93802888	     67.76085848	      1.18265008	     23.93348688	     -6.05405456	     -7.49999987	     44.30930019	     -7.79037843	     -4.45800812	     67.82707663	      1.18380581	     22.80664573	     -7.11040126	     -7.49999987	    -25.63713259	      3.04341432	      0.51439913	      7.82026471	    -27.32319793	     -1.93652170	     80.30712144	     83.81866441	      8.30139787	    -17.81663913	      3.97002677	     75.39485518	     69.63173402
      2.78750000	     -9.96955761	     -0.85206174	      1.90615980	      0.24614183	      0.80802630	     -0.04918417	     42.05402781	     -8.96615660	     -7.14305636	     65.94707104	      1.15099352	     22.18715790	     -7.20992289	     -7.49999987	     42.96521396	     -8.23045775	     -4.64988800	     66.35263442	      1.15807194	     22.25380833	     -5.41819556	     -7.49999987	    -25.28999670	      3.00190149	      0.60146155	      7.41492413	    -27.06268300	     -1.87901512	     80.86427461	     84.12327534	      7.80631181	    -18.43816570	      4.32693116	     76.55315519	     69.92618775
      2.79166670	     -9.65458730	     -0.93667316	      1.83745167	      0.25139239	      0.80991086	     -0.05025306	     40.83510778	     -8.78005778	     -7.41864781	     64.85984912	      1.13201792	     21.45325432	     -7.30961217	     -7.49999987	     41.70829246	     -8.54158820	     -4.90344615	     65.27577472	      1.13927719	     21.97807552	     -4.19507247	     -7.49999987	    -24.54690128	      3.03629692	      0.77824986	      6.77360743	    -27.12654589	     -1.60969276	     81.42593487	     83.90897306	      7.13878626	    -18.59407188	      4.38647007	     77.34204791	     69.97581369
      2.79583330	     -9.41520796	     -1.07323772	      1.74062477	      0.25348317	      0.81973227	     -0.04950503	     39.54991040	     -8.41510844	     -7.69455371	     63.28558519	      1.10454183	     20.44425777	     -7.20253898	     -7.49999987	     40.51633978	     -8.82563567	     -5.23302671	     63.88873682	      1.11506881	     21.23850344	     -3.28170322	     -7.49999987	    -23.81366829	      3.13187370	      0.84065322	      6.25821901	    -27.14059416	     -1.14818907	     81.79794986	     81.49242100	      6.48298269	    -18.72736226	      4.58432615	     78.01589650	     68.89097289
      2.80000000	     -9.01668455	     -1.14601681	      1.68674927	      0.25619611	      0.82675222	     -0.04712240	     38.19394195	     -8.00420318	     -7.85976390	     61.63436211	      1.07572255	     19.31852274	     -7.26382482	     -7.49999987	     39.09643062	     -9.15441344	     -5.50870085	     62.39341436	      1.08897051	     20.17605234	     -2.59235404	     -7.49999987	    -23.49336813	      3.09951936	      0.92276012	      5.46239229	    -26.85846159	     -1.77014014	     82.91058727	     86.09770736	      5.55949259	    -18.83838000	      3.88543633	     79.57878850	     72.10186168
      2.80416670	     -9.02328726	     -1.14312681	      1.63078839	      0.26141915	      0.83127858	     -0.05033128	     37.32732156	     -8.01261907	     -8.20392934	     60.42879873	      1.05468150	     18.71560086	     -7.26656947	     -7.49999987	     38.15488906	     -9.26090824	     -5.77906284	     61.16795855	      1.06758227	     19.54527641	     -2.20703557	     -7.49999987	    -22.18112925	      3.09943404	      0.93114619	      4.69177933	    -26.85860373	     -1.58233286	     83.17012425	     86.10989299	      4.69479222	    -18.80194432	      4.08246165	     79.90417205	     72.13588444
      2.80833330	     -8.11988630	     -1.19342875	      1.54144056	      0.26684260	      0.83693501	     -0.05084244	     35.41156464	     -7.91351589	     -8.53874165	     59.03027200	      1.03027260	     16.93823837	     -8.19209635	     -7.49999987	     36.13075666	     -9.44285063	     -6.13266206	     59.90316683	      1.04550749	     18.77510286	     -1.73636858	     -7.49999987	    -22.32171678	      3.18424864	      0.99374244	      3.86708267	    -27.24579059	     -1.39960382	     84.65985549	     85.84407254	      3.83767005	    -19.00459162	      4.12881841	     81.48002401	     72.29621351
      2.81250000	     -7.96069436	     -1.15308866	      1.43391539	      0.27055090	      0.83795499	     -0.05286207	     34.45744776	     -8.08111505	     -8.88109318	     57.96831627	      1.01173798	     16.34511352	     -8.30642626	     -7.49999987	     35.17549401	     -9.47818171	     -6.50970710	     59.13134585	      1.03203668	     18.45122081	     -1.22385502	     -7.49999987	    -21.37301243	      3.21586392	      0.91646340	      2.74560308	    -27.61465304	     -1.41395637	     86.32537664	     85.53684896	      2.52164638	    -19.24923195	      4.12691720	     83.12116625	     72.43126872
